# Blender 3.3.1
# www.blender.org
o Turret
v 0.276388 1.449885 0.850649
v -0.723607 1.449885 0.525725
v -0.723607 1.449885 -0.525725
v 0.276388 1.449885 -0.850649
v 0.894426 1.449881 0.000000
v 0.000000 2.002665 0.000000
v 0.951058 1.002665 0.309013
v 0.951058 1.002665 -0.309013
v 0.000000 1.002665 1.000000
v 0.587786 1.002665 0.809017
v -0.951058 1.002665 0.309013
v -0.587786 1.002665 0.809017
v -0.587786 1.002665 -0.809017
v -0.951058 1.002665 -0.309013
v 0.587786 1.002665 -0.809017
v 0.000000 1.002665 -1.000000
v 0.688189 1.528401 0.499997
v -0.262869 1.528403 0.809012
v -0.850648 1.528401 0.000000
v -0.262869 1.528403 -0.809012
v 0.688189 1.528401 -0.499997
v 0.162456 1.853319 0.499995
v 0.525730 1.853317 0.000000
v -0.425323 1.853319 0.309011
v -0.425323 1.853319 -0.309011
v 0.162456 1.853319 -0.499995
v 0.000000 -0.324865 -1.000000
v 0.587786 -0.324865 -0.809017
v -0.951058 -0.324865 -0.309013
v -0.587786 -0.324865 -0.809017
v -0.587786 -0.324865 0.809017
v -0.951058 -0.324865 0.309013
v 0.587786 -0.324865 0.809017
v 0.000000 -0.324865 1.000000
v 0.951058 -0.324865 -0.309013
v 0.951058 -0.324865 0.309013
v -0.524515 1.195525 0.852851
v -0.524515 2.000902 0.852851
v -0.524515 1.195525 -0.761835
v 0.524515 1.195525 0.852851
v 0.524515 2.000902 0.852851
v 0.524515 1.195525 -0.761835
v -0.524515 2.000902 -0.477253
v -0.524515 1.716319 -0.761835
v 0.524515 1.716319 -0.761835
v 0.524515 2.000902 -0.477253
v 0.109829 1.794912 1.161777
v -0.000000 1.834887 1.161777
v -0.000000 1.834887 0.309120
v -0.000000 1.834887 2.309120
v 0.109829 1.794912 0.309120
v 0.109829 1.794912 2.309120
v 0.168268 1.693693 0.309120
v 0.168268 1.693693 2.309120
v 0.147973 1.578590 0.309120
v 0.147973 1.578590 2.309120
v 0.058439 1.503462 0.309120
v 0.058439 1.503462 2.309120
v -0.058439 1.503462 0.309120
v -0.058439 1.503462 2.309120
v -0.147973 1.578590 0.309120
v -0.147973 1.578590 2.309120
v -0.168269 1.693693 0.309120
v -0.168269 1.693693 2.309120
v -0.109829 1.794912 0.309120
v -0.109829 1.794912 2.309120
v 0.168268 1.693693 1.161777
v 0.147973 1.578590 1.161777
v 0.058439 1.503462 1.161777
v -0.058439 1.503462 1.161777
v -0.147973 1.578590 1.161777
v -0.168269 1.693693 1.161777
v -0.109829 1.794912 1.161777
v -0.000000 1.912612 1.161777
v 0.159790 1.854453 1.161777
v 0.244813 1.707189 1.161777
v -0.000000 1.912612 0.309120
v 0.159790 1.854453 0.309120
v 0.215285 1.539728 1.161777
v 0.244813 1.707189 0.309120
v 0.085022 1.430425 1.161777
v 0.215285 1.539728 0.309120
v -0.085023 1.430425 1.161777
v 0.085022 1.430425 0.309120
v -0.215285 1.539728 1.161777
v -0.085023 1.430425 0.309120
v -0.244813 1.707189 1.161777
v -0.215285 1.539728 0.309120
v -0.159790 1.854453 1.161777
v -0.244813 1.707189 0.309120
v -0.159790 1.854453 0.309120
vn 0.4089 0.6617 0.6284
vn -0.4713 0.6617 0.5831
vn -0.7002 0.6617 -0.2680
vn 0.0385 0.6617 -0.7488
vn 0.7240 0.6617 -0.1947
vn 0.2680 0.9435 -0.1947
vn 0.4911 0.7947 -0.3568
vn 0.4089 0.6617 -0.6284
vn -0.1024 0.9435 -0.3151
vn -0.1876 0.7947 -0.5773
vn -0.4713 0.6617 -0.5831
vn -0.3313 0.9435 -0.0000
vn -0.6071 0.7947 -0.0000
vn -0.7002 0.6617 0.2680
vn -0.1024 0.9435 0.3151
vn -0.1876 0.7947 0.5773
vn 0.0385 0.6617 0.7488
vn 0.2680 0.9435 0.1947
vn 0.4911 0.7947 0.3568
vn 0.7240 0.6617 0.1947
vn 0.8897 0.3304 -0.3151
vn 0.7947 0.1876 -0.5773
vn 0.5746 0.3304 -0.7488
vn -0.0247 0.3304 -0.9435
vn -0.3035 0.1876 -0.9342
vn -0.5346 0.3304 -0.7779
vn -0.9050 0.3304 -0.2680
vn -0.9822 0.1876 -0.0000
vn -0.9050 0.3304 0.2680
vn -0.5346 0.3304 0.7779
vn -0.3035 0.1876 0.9342
vn -0.0247 0.3304 0.9435
vn 0.5746 0.3304 0.7488
vn 0.7947 0.1876 0.5773
vn 0.8897 0.3304 0.3151
vn 0.3066 0.1256 -0.9435
vn -0.8026 0.1256 -0.5831
vn -0.8026 0.1256 0.5831
vn 0.3066 0.1256 0.9435
vn 0.9921 0.1256 -0.0000
vn 0.3090 -0.0000 -0.9511
vn -0.8090 -0.0000 -0.5878
vn 0.8090 -0.0000 -0.5878
vn -0.8090 -0.0000 0.5878
vn -0.3090 -0.0000 -0.9511
vn -1.0000 -0.0000 -0.0000
vn 0.3090 -0.0000 0.9511
vn -0.3090 -0.0000 0.9511
vn 1.0000 -0.0000 -0.0000
vn 0.8090 -0.0000 0.5878
vn -0.0000 -0.0000 -1.0000
vn -0.0000 -0.0000 1.0000
vn -0.0000 -1.0000 -0.0000
vn -0.0000 0.7071 -0.7071
vn -0.0000 1.0000 -0.0000
vn 0.3420 0.9397 -0.0000
vn 0.8660 0.5000 -0.0000
vn 0.9848 -0.1736 -0.0000
vn 0.6428 -0.7660 -0.0000
vn -0.6428 -0.7660 -0.0000
vn -0.9848 -0.1736 -0.0000
vn -0.8660 0.5000 -0.0000
vn -0.3420 0.9397 -0.0000
vt 0.181819 0.314921
vt 0.000000 0.314921
vt 0.909091 0.314921
vt 0.727273 0.314921
vt 0.545455 0.314921
vt 0.363637 0.314921
vt 0.454546 0.472382
vt 0.636364 0.472382
vt 0.818182 0.472382
vt 0.090910 0.472382
vt 0.272728 0.472382
vt 0.318182 0.236191
vt 0.409092 0.236191
vt 0.136365 0.236191
vt 0.227273 0.236191
vt 0.863636 0.236191
vt 0.954545 0.236191
vt 0.045455 0.236191
vt 0.681818 0.236191
vt 0.772727 0.236191
vt 0.500000 0.236191
vt 0.590909 0.236191
vt 0.272728 0.314921
vt 0.090910 0.314921
vt 0.818182 0.314921
vt 0.636364 0.314921
vt 0.454546 0.314921
vt 0.136365 0.393651
vt 0.227273 0.393651
vt 0.409092 0.393651
vt 0.318182 0.393651
vt 0.863636 0.393651
vt 0.045455 0.393651
vt 0.681818 0.393651
vt 0.772727 0.393651
vt 0.500000 0.393651
vt 0.590909 0.393651
vt 0.590909 0.236191
vt 0.500000 0.236191
vt 0.772727 0.236191
vt 0.681818 0.236191
vt 0.954545 0.236191
vt 0.045455 0.236191
vt 0.863636 0.236191
vt 0.227273 0.236191
vt 0.136365 0.236191
vt 0.409092 0.236191
vt 0.318182 0.236191
vt 0.375000 1.000000
vt 0.125000 0.750000
vt 0.375000 0.000000
vt 0.625000 1.000000
vt 0.625000 0.000000
vt 0.875000 0.750000
vt 0.125000 0.500000
vt 0.375000 0.250000
vt 0.375000 0.750000
vt 0.625000 0.750000
vt 0.375000 0.500000
vt 0.625000 0.250000
vt 0.625000 0.205938
vt 0.875000 0.544062
vt 0.536662 0.250000
vt 0.536662 0.500000
vt 0.625000 0.544062
vt 0.625000 0.500000
vt 0.888889 0.713164
vt 1.000000 0.713164
vt 0.000000 0.713164
vt 0.750000 0.490000
vt 1.000000 1.000000
vt 0.250000 0.490000
vt 0.000000 1.000000
vt 0.904269 0.433851
vt 0.888889 1.000000
vt 0.404269 0.433851
vt 0.986354 0.291676
vt 0.777778 1.000000
vt 0.486354 0.291676
vt 0.957846 0.130000
vt 0.666667 1.000000
vt 0.457846 0.130000
vt 0.832085 0.024474
vt 0.555556 1.000000
vt 0.332085 0.024474
vt 0.667915 0.024474
vt 0.444444 1.000000
vt 0.167915 0.024474
vt 0.542154 0.130000
vt 0.333333 1.000000
vt 0.042154 0.130000
vt 0.513646 0.291676
vt 0.013646 0.291676
vt 0.222222 1.000000
vt 0.595731 0.433851
vt 0.095731 0.433851
vt 0.111111 1.000000
vt 0.777778 0.713164
vt 0.666667 0.713164
vt 0.555556 0.713164
vt 0.444444 0.713164
vt 0.333333 0.713164
vt 0.222222 0.713164
vt 0.111111 0.713164
vt 0.000000 0.713164
vt 1.000000 0.713164
vt 0.888889 0.713164
vt 0.777778 0.713164
vt 1.000000 0.500000
vt 0.750000 0.490000
vt 0.000000 0.500000
vt 0.904269 0.433851
vt 0.888889 0.500000
vt 0.666667 0.713164
vt 0.777778 0.500000
vt 0.986354 0.291676
vt 0.555556 0.713164
vt 0.666667 0.500000
vt 0.957846 0.130000
vt 0.444444 0.713164
vt 0.832085 0.024474
vt 0.555556 0.500000
vt 0.333333 0.713164
vt 0.444444 0.500000
vt 0.667915 0.024474
vt 0.222222 0.713164
vt 0.333333 0.500000
vt 0.542154 0.130000
vt 0.111111 0.713164
vt 0.222222 0.500000
vt 0.513646 0.291676
vt 0.111111 0.500000
vt 0.595731 0.433851
s 0
f 1/1/1 17/23/1 22/29/1
f 2/2/2 18/24/2 24/33/2
f 3/4/3 19/25/3 25/35/3
f 4/5/4 20/26/4 26/37/4
f 5/6/5 21/27/5 23/30/5
f 23/30/6 26/36/6 6/7/6
f 23/30/7 21/27/7 26/36/7
f 21/27/8 4/5/8 26/36/8
f 26/37/9 25/34/9 6/8/9
f 26/37/10 20/26/10 25/34/10
f 20/26/11 3/4/11 25/34/11
f 25/35/12 24/32/12 6/9/12
f 25/35/13 19/25/13 24/32/13
f 19/25/14 2/3/14 24/32/14
f 24/33/15 22/28/15 6/10/15
f 24/33/16 18/24/16 22/28/16
f 18/24/17 1/1/17 22/28/17
f 22/29/18 23/31/18 6/11/18
f 22/29/19 17/23/19 23/31/19
f 17/23/20 5/6/20 23/31/20
f 8/13/21 21/27/21 5/6/21
f 8/13/22 15/21/22 21/27/22
f 15/21/23 4/5/23 21/27/23
f 16/22/24 20/26/24 4/5/24
f 16/22/25 13/19/25 20/26/25
f 13/19/26 3/4/26 20/26/26
f 14/20/27 19/25/27 3/4/27
f 14/20/28 11/16/28 19/25/28
f 11/16/29 2/3/29 19/25/29
f 12/18/30 18/24/30 2/2/30
f 12/18/31 9/14/31 18/24/31
f 9/14/32 1/1/32 18/24/32
f 10/15/33 17/23/33 1/1/33
f 10/15/34 7/12/34 17/23/34
f 7/12/35 5/6/35 17/23/35
f 15/21/36 16/22/36 4/5/36
f 13/19/37 14/20/37 3/4/37
f 11/16/38 12/17/38 2/3/38
f 9/14/39 10/15/39 1/1/39
f 7/12/40 8/13/40 5/6/40
f 15/21/41 27/38/41 16/22/41
f 13/19/42 29/40/42 14/20/42
f 8/13/43 28/39/43 15/21/43
f 11/16/44 31/42/44 12/17/44
f 16/22/45 30/41/45 13/19/45
f 14/20/46 32/44/46 11/16/46
f 9/14/47 33/45/47 10/15/47
f 12/18/48 34/46/48 9/14/48
f 7/12/49 35/47/49 8/13/49
f 10/15/50 36/48/50 7/12/50
f 44/63/51 42/59/51 39/56/51
f 45/64/49 41/58/49 40/57/49
f 41/58/52 37/49/52 40/57/52
f 42/59/53 37/50/53 39/55/53
f 38/53/46 44/63/46 39/56/46
f 46/66/54 44/63/54 43/60/54
f 43/62/55 41/58/55 46/65/55
f 49/70/51 78/112/51 51/74/51
f 50/71/56 47/67/56 48/68/56
f 63/92/51 91/133/51 65/95/51
f 52/75/57 67/98/57 47/67/57
f 57/83/51 86/125/51 59/86/51
f 54/78/58 68/99/58 67/98/58
f 51/74/51 80/116/51 53/77/51
f 56/81/59 69/100/59 68/99/59
f 47/67/52 76/108/52 75/107/52
f 58/84/53 70/101/53 69/100/53
f 48/69/52 89/129/52 73/104/52
f 60/87/60 71/102/60 70/101/60
f 70/101/52 85/123/52 83/120/52
f 62/90/61 72/103/61 71/102/61
f 50/72/52 60/88/52 56/82/52
f 67/98/52 79/114/52 76/108/52
f 64/94/62 73/104/62 72/103/62
f 47/67/52 74/106/52 48/68/52
f 66/97/63 48/69/63 73/104/63
f 51/74/51 59/86/51 63/92/51
f 75/107/57 80/115/57 78/113/57
f 76/108/58 82/118/58 80/115/58
f 79/114/59 84/122/59 82/118/59
f 81/117/53 86/124/53 84/122/53
f 83/120/60 88/127/60 86/124/60
f 85/123/61 90/130/61 88/127/61
f 87/126/62 91/132/62 90/130/62
f 89/129/63 77/111/63 91/132/63
f 74/106/56 78/113/56 77/109/56
f 70/101/52 81/117/52 69/100/52
f 73/104/52 87/126/52 72/103/52
f 57/83/51 82/119/51 84/121/51
f 61/89/51 90/131/51 63/92/51
f 69/100/52 79/114/52 68/99/52
f 72/103/52 85/123/52 71/102/52
f 49/70/51 91/133/51 77/110/51
f 55/80/51 80/116/51 82/119/51
f 59/86/51 88/128/51 61/89/51
f 31/43/53 27/38/53 35/47/53
f 15/21/41 28/39/41 27/38/41
f 13/19/42 30/41/42 29/40/42
f 8/13/43 35/47/43 28/39/43
f 11/16/44 32/44/44 31/42/44
f 16/22/45 27/38/45 30/41/45
f 14/20/46 29/40/46 32/44/46
f 9/14/47 34/46/47 33/45/47
f 12/18/48 31/43/48 34/46/48
f 7/12/49 36/48/49 35/47/49
f 10/15/50 33/45/50 36/48/50
f 44/63/51 45/64/51 42/59/51
f 40/57/49 42/59/49 45/64/49
f 45/64/49 46/65/49 41/58/49
f 41/58/52 38/52/52 37/49/52
f 42/59/53 40/57/53 37/50/53
f 39/56/46 37/51/46 38/53/46
f 38/53/46 43/61/46 44/63/46
f 46/66/54 45/64/54 44/63/54
f 43/62/55 38/54/55 41/58/55
f 49/70/51 77/110/51 78/112/51
f 50/71/56 52/75/56 47/67/56
f 63/92/51 90/131/51 91/133/51
f 52/75/57 54/78/57 67/98/57
f 57/83/51 84/121/51 86/125/51
f 54/78/58 56/81/58 68/99/58
f 51/74/51 78/112/51 80/116/51
f 56/81/59 58/84/59 69/100/59
f 47/67/52 67/98/52 76/108/52
f 58/84/53 60/87/53 70/101/53
f 48/69/52 74/105/52 89/129/52
f 60/87/60 62/90/60 71/102/60
f 70/101/52 71/102/52 85/123/52
f 62/90/61 64/94/61 72/103/61
f 54/79/52 52/76/52 50/72/52
f 50/72/52 66/96/52 64/93/52
f 64/93/52 62/91/52 60/88/52
f 60/88/52 58/85/52 56/82/52
f 56/82/52 54/79/52 50/72/52
f 50/72/52 64/93/52 60/88/52
f 67/98/52 68/99/52 79/114/52
f 64/94/62 66/97/62 73/104/62
f 47/67/52 75/107/52 74/106/52
f 66/97/63 50/73/63 48/69/63
f 65/95/51 49/70/51 51/74/51
f 51/74/51 53/77/51 55/80/51
f 55/80/51 57/83/51 59/86/51
f 59/86/51 61/89/51 63/92/51
f 63/92/51 65/95/51 51/74/51
f 51/74/51 55/80/51 59/86/51
f 75/107/57 76/108/57 80/115/57
f 76/108/58 79/114/58 82/118/58
f 79/114/59 81/117/59 84/122/59
f 81/117/53 83/120/53 86/124/53
f 83/120/60 85/123/60 88/127/60
f 85/123/61 87/126/61 90/130/61
f 87/126/62 89/129/62 91/132/62
f 89/129/63 74/105/63 77/111/63
f 74/106/56 75/107/56 78/113/56
f 70/101/52 83/120/52 81/117/52
f 73/104/52 89/129/52 87/126/52
f 57/83/51 55/80/51 82/119/51
f 61/89/51 88/128/51 90/131/51
f 69/100/52 81/117/52 79/114/52
f 72/103/52 87/126/52 85/123/52
f 49/70/51 65/95/51 91/133/51
f 55/80/51 53/77/51 80/116/51
f 59/86/51 86/125/51 88/128/51
f 35/47/53 36/48/53 33/45/53
f 33/45/53 34/46/53 31/43/53
f 31/43/53 32/44/53 29/40/53
f 29/40/53 30/41/53 27/38/53
f 27/38/53 28/39/53 35/47/53
f 35/47/53 33/45/53 31/43/53
f 31/43/53 29/40/53 27/38/53
